<svg viewBox="0 0 48 48" xmlns="http://www.w3.org/2000/svg">
  <defs>
    <linearGradient id="gradient" x1="0%" y1="0%" x2="100%" y2="100%">
      <stop offset="0%" style="stop-color:#667eea;stop-opacity:1" />
      <stop offset="100%" style="stop-color:#764ba2;stop-opacity:1" />
    </linearGradient>
  </defs>
  
  <g>
    <circle cx="24" cy="24" r="22" fill="url(#gradient)" opacity="0.1"/>
    <circle cx="24" cy="24" r="6" fill="url(#gradient)"/>
    <path d="M24 18 L24 6 M24 30 L24 42 M18 24 L6 24 M30 24 L42 24" 
          stroke="url(#gradient)" 
          stroke-width="2" 
          stroke-linecap="round"/>
    <circle cx="24" cy="6" r="3" fill="url(#gradient)"/>
    <circle cx="24" cy="42" r="3" fill="url(#gradient)"/>
    <circle cx="6" cy="24" r="3" fill="url(#gradient)"/>
    <circle cx="42" cy="24" r="3" fill="url(#gradient)"/>
    <path d="M19 19 L11 11 M29 19 L37 11 M19 29 L11 37 M29 29 L37 37" 
          stroke="url(#gradient)" 
          stroke-width="1.5" 
          stroke-linecap="round"
          opacity="0.6"/>
    <circle cx="11" cy="11" r="2" fill="url(#gradient)" opacity="0.8"/>
    <circle cx="37" cy="11" r="2" fill="url(#gradient)" opacity="0.8"/>
    <circle cx="11" cy="37" r="2" fill="url(#gradient)" opacity="0.8"/>
    <circle cx="37" cy="37" r="2" fill="url(#gradient)" opacity="0.8"/>
  </g>
</svg> 